<svg id="ICON" xmlns="http://www.w3.org/2000/svg" viewBox="0 0 512 512"><defs><style>.cls-1{fill:#e4a761;}.cls-2{fill:#acc1c6;}.cls-3{fill:#9f4b64;}.cls-4{fill:#2a3342;}.cls-5{fill:#d07c2c;}.cls-6{fill:#aa6329;}.cls-7{fill:#cf6b58;}.cls-8{fill:#d1c8c7;}.cls-9{fill:none;}.cls-10{fill:#67ab65;}.cls-11{fill:#dc565e;}.cls-12{fill:#b14b5a;}.cls-13{fill:#ca6d4b;}</style></defs><title>Cooking</title><path class="cls-1" d="M373.53,326.42s76.94-59,83.71-100.61a19.21,19.21,0,0,0-3.33-14.53c-4.79-6.46-15.37-12.33-38.37-1.44a65.65,65.65,0,0,0-12,7.47c-6.67,5.18-20.8,13.3-22.31-9.34a24.37,24.37,0,0,0-3.83-11.84c-3.45-5.26-9.45-10.62-18.56-6.63A18.56,18.56,0,0,0,348,205.15c-1.48,18.91-4.36,66.65.72,103.93Z"/><rect class="cls-2" x="118.23" y="219.45" width="37.41" height="20.02" transform="translate(85.77 -32.81) rotate(19.79)"/><path class="cls-3" d="M131.07,275.7H410.2a0,0,0,0,1,0,0v0A61.23,61.23,0,0,1,349,336.93H192.3a61.23,61.23,0,0,1-61.23-61.23v0A0,0,0,0,1,131.07,275.7Z" transform="translate(119.69 -73.54) rotate(19.79)"/><rect class="cls-4" x="143.62" y="265" width="279.13" height="12.89" transform="translate(108.63 -79.85) rotate(19.79)"/><rect class="cls-4" x="23.64" y="194.63" width="106.56" height="26.47" rx="13.23" transform="translate(74.92 -13.77) rotate(19.79)"/><path class="cls-5" d="M257.16,249.05a5.56,5.56,0,0,1-1.61.93,7.79,7.79,0,0,1-9.76-3.38l-20.92-37.09a11.63,11.63,0,0,1,5.71-16.46l2.07-.83.71-.31A11.63,11.63,0,0,1,249,199.63l11.15,41.09A7.7,7.7,0,0,1,257.16,249.05Z"/><path class="cls-6" d="M257.16,249.05a5.56,5.56,0,0,1-1.61.93,7.79,7.79,0,0,1-9.76-3.38l-20.92-37.09a11.63,11.63,0,0,1,5.71-16.46l2.07-.83C235.44,205.05,243.17,234.6,257.16,249.05Z"/><path class="cls-5" d="M284.71,245.57a3.61,3.61,0,0,1-.94-.69,4.88,4.88,0,0,1-.51-6.44l16-21.29a7.27,7.27,0,0,1,10.86-.87l1,1,.36.33a7.28,7.28,0,0,1-.49,10.89l-20.74,16.7A4.82,4.82,0,0,1,284.71,245.57Z"/><path class="cls-6" d="M284.71,245.57a3.61,3.61,0,0,1-.94-.69,4.88,4.88,0,0,1-.51-6.44l16-21.29a7.27,7.27,0,0,1,10.86-.87l1,1C304.45,222.08,289.48,233.93,284.71,245.57Z"/><path class="cls-7" d="M383.82,206.73l4.92-3.4,4.44-3.07a22.78,22.78,0,1,1-37.48,25.9l4.46-3.08,4.92-3.4Z"/><path class="cls-8" d="M360.16,223.08l28.58-19.75a17.37,17.37,0,1,1-28.58,19.75Z"/><path class="cls-7" d="M383.82,206.73a11.39,11.39,0,1,1-18.74,13Z"/><path class="cls-8" d="M379.12,210a5.69,5.69,0,0,1-9.36,6.47Z"/><polyline class="cls-9" points="365.08 219.68 369.76 216.45 379.12 209.98 383.82 206.73"/><circle class="cls-10" cx="369.76" cy="264.82" r="7.56"/><circle class="cls-10" cx="305.53" cy="252.52" r="7.56"/><circle class="cls-10" cx="192.65" cy="192.22" r="7.56"/><circle class="cls-10" cx="313.09" cy="155.91" r="7.56"/><circle class="cls-11" cx="279.53" cy="196.42" r="21.76"/><path class="cls-12" d="M301.14,198.94A21.77,21.77,0,0,1,277,218a22.11,22.11,0,0,1-7.15-2.1,21.78,21.78,0,0,0,4.73-40.72,21.78,21.78,0,0,1,26.54,23.72Z"/><ellipse class="cls-10" cx="274.97" cy="173.68" rx="4.35" ry="11.92" transform="translate(-27.45 293.31) rotate(-53.86)"/><ellipse class="cls-10" cx="287.98" cy="168.41" rx="11.92" ry="4.35" transform="translate(29.33 379.11) rotate(-69.49)"/><ellipse class="cls-10" cx="292.94" cy="178.31" rx="11.92" ry="4.35" transform="matrix(0.99, -0.13, 0.13, 0.99, -21.11, 40.54)"/><circle class="cls-11" cx="339.46" cy="256.83" r="21.76"/><path class="cls-12" d="M355.91,271.07a21.76,21.76,0,0,1-30.68,2.23,22.44,22.44,0,0,1-4.73-5.76,21.78,21.78,0,0,0,26.82-31,22.05,22.05,0,0,1,6.38,3.85A21.76,21.76,0,0,1,355.91,271.07Z"/><ellipse class="cls-10" cx="348.49" cy="235.46" rx="4.35" ry="11.92" transform="translate(-58.86 130.79) rotate(-19.63)"/><ellipse class="cls-10" cx="362.2" cy="238.43" rx="11.92" ry="4.35" transform="translate(-71.19 252.84) rotate(-35.26)"/><ellipse class="cls-10" cx="360.74" cy="249.4" rx="4.35" ry="11.92" transform="translate(-23.73 460.4) rotate(-63.42)"/><path class="cls-13" d="M162.42,408.85s-37.18-16.07-37.18-61.15c0,0,36.56,2.49,51.92,17.84a63.63,63.63,0,0,1,8.7-12c11.47-12.48,30.82-14.34,43.87-3.53,4.55,3.77,8.12,8.87,8.12,15.57l4.62-3.92c15.72-13.36,39.88-2.18,39.88,18.45v28.78"/><path class="cls-13" d="M402.27,408.85s37.18-16.07,37.18-61.15c0,0-36.56,2.49-51.91,17.84,0,0-6.77-12.94-18.22-20.12a25.9,25.9,0,0,0-24.06-1.6c-8,3.49-18.42,10.25-18.42,21.72l-4.61-3.92c-15.73-13.36-39.88-2.18-39.88,18.45v28.78"/><path class="cls-1" d="M215,133.16a15.93,15.93,0,0,0-27.91,15.35c4.24,7.71,27.91,17.71,27.91,17.71S219.22,140.87,215,133.16Z"/><path class="cls-1" d="M479.66,267.86a11.43,11.43,0,0,0-10.17-20.47C463.83,250.2,456,266.87,456,266.87S474,270.67,479.66,267.86Z"/><path class="cls-1" d="M282.89,112.49a11.43,11.43,0,1,0-22.47,4.19c1.16,6.2,15,18.33,15,18.33S284,118.69,282.89,112.49Z"/><path class="cls-1" d="M437.51,171.83a11.43,11.43,0,1,0-17-15.26c-4.21,4.7-5.36,23.1-5.36,23.1S433.3,176.53,437.51,171.83Z"/></svg>